<svg width="24" height="24" viewBox="0 0 24 24" fill="currentColor" xmlns="http://www.w3.org/2000/svg">
<path fill-rule="evenodd" clip-rule="evenodd" d="M16.5 2C16.5 1.72386 16.2761 1.5 16 1.5C15.7239 1.5 15.5 1.72386 15.5 2V3.5H8.5V2C8.5 1.72386 8.27614 1.5 8 1.5C7.72386 1.5 7.5 1.72386 7.5 2V3.5H5C3.61929 3.5 2.5 4.61929 2.5 6V10V20C2.5 21.3807 3.61929 22.5 5 22.5H19C20.3807 22.5 21.5 21.3807 21.5 20V10V6C21.5 4.61929 20.3807 3.5 19 3.5H16.5V2ZM20.5 9.5V6C20.5 5.17157 19.8284 4.5 19 4.5H16.5V6C16.5 6.27614 16.2761 6.5 16 6.5C15.7239 6.5 15.5 6.27614 15.5 6V4.5H8.5V6C8.5 6.27614 8.27614 6.5 8 6.5C7.72386 6.5 7.5 6.27614 7.5 6V4.5H5C4.17157 4.5 3.5 5.17157 3.5 6V9.5H20.5ZM3.5 10.5H20.5V20C20.5 20.8284 19.8284 21.5 19 21.5H5C4.17157 21.5 3.5 20.8284 3.5 20V10.5Z" fill="currentColor"/>
</svg>
