<svg width="current" height="current" viewBox="0 0 24 24" fill="currentColor" xmlns="http://www.w3.org/2000/svg">
<path fill-rule="evenodd" clip-rule="evenodd" d="M11.8615 6.29721C11.9787 6.13873 11.9918 5.92621 11.895 5.75452C11.7983 5.58283 11.6097 5.48399 11.4134 5.50213C10.1817 5.61596 9.00778 6.07825 8.02914 6.8349C7.0505 7.59154 6.3076 8.61125 5.88735 9.77471C5.4671 10.9382 5.38689 12.1973 5.65611 13.4046C5.92532 14.612 6.53283 15.7178 7.40754 16.5925C8.28226 17.4672 9.38799 18.0747 10.5954 18.3439C11.8028 18.6131 13.0618 18.5329 14.2253 18.1127C15.3888 17.6924 16.4085 16.9495 17.1651 15.9709C17.9218 14.9922 18.384 13.8183 18.4979 12.5866C18.516 12.3903 18.4172 12.2017 18.2455 12.105C18.0738 12.0082 17.8613 12.0213 17.7028 12.1385C16.8983 12.7331 15.9072 13.0192 14.9096 12.9448C13.912 12.8704 12.9743 12.4405 12.2669 11.7331C11.5596 11.0257 11.1296 10.088 11.0552 9.0904C10.9808 8.09282 11.2669 7.10166 11.8615 6.29721Z" fill="currentColor"/>
</svg>
