<svg width="current" height="current" viewBox="0 0 24 24" fill="currentColor" xmlns="http://www.w3.org/2000/svg">
<path fill-rule="evenodd" clip-rule="evenodd" d="M12.6522 4.40498C12.5297 4.15699 12.2768 4 12 4C11.7232 4 11.4704 4.15699 11.3479 4.40498L9.26968 8.61119L4.62217 9.28985C4.34831 9.32984 4.1209 9.52166 4.03554 9.78468C3.95017 10.0477 4.02165 10.3363 4.21991 10.5293L7.58223 13.8011L6.78871 18.4232C6.74191 18.6958 6.85409 18.9713 7.07807 19.1339C7.30206 19.2965 7.59899 19.3179 7.84402 19.1891L12 17.0056L16.156 19.1891C16.4011 19.3179 16.698 19.2965 16.922 19.1339C17.146 18.9713 17.2582 18.6958 17.2114 18.4232L16.4178 13.8011L19.7802 10.5293C19.9784 10.3363 20.0499 10.0477 19.9645 9.78468C19.8792 9.52166 19.6518 9.32984 19.3779 9.28985L14.7304 8.61119L12.6522 4.40498Z" fill="currentColor"/>
</svg>
