<svg width="24" height="24" viewBox="0 0 24 24" fill="currentColor" xmlns="http://www.w3.org/2000/svg">
<path fill-rule="evenodd" clip-rule="evenodd" d="M12 4C12.5523 4 13 4.44772 13 5V8C13 8.04201 12.9974 8.08342 12.9924 8.12407C13.3648 8.21915 13.7164 8.3665 14.0388 8.55785C14.064 8.52546 14.0915 8.49426 14.1213 8.46447L16.2426 6.34315C16.6332 5.95263 17.2663 5.95263 17.6568 6.34315C18.0474 6.73368 18.0474 7.36684 17.6568 7.75737L15.5355 9.87869C15.5057 9.90847 15.4745 9.93598 15.4421 9.96122C15.6335 10.2836 15.7809 10.6352 15.8759 11.0076C15.9166 11.0026 15.958 11 16 11H19C19.5523 11 20 11.4477 20 12C20 12.5523 19.5523 13 19 13H16C15.958 13 15.9166 12.9974 15.8759 12.9924C15.7809 13.3648 15.6335 13.7164 15.4421 14.0388C15.4745 14.064 15.5057 14.0915 15.5355 14.1213L17.6569 16.2426C18.0474 16.6332 18.0474 17.2663 17.6569 17.6569C17.2663 18.0474 16.6332 18.0474 16.2426 17.6569L14.1213 15.5355C14.0915 15.5057 14.064 15.4745 14.0388 15.4421C13.7164 15.6335 13.3648 15.7809 12.9924 15.8759C12.9974 15.9166 13 15.958 13 16V19C13 19.5523 12.5523 20 12 20C11.4477 20 11 19.5523 11 19V16C11 15.958 11.0026 15.9166 11.0076 15.8759C10.6352 15.7809 10.2836 15.6335 9.96121 15.4421C9.93597 15.4745 9.90846 15.5057 9.87868 15.5355L7.75736 17.6568C7.36683 18.0473 6.73367 18.0473 6.34314 17.6568C5.95262 17.2663 5.95262 16.6331 6.34314 16.2426L8.46446 14.1213C8.49425 14.0915 8.52545 14.064 8.55784 14.0388C8.36649 13.7164 8.21914 13.3648 8.12406 12.9924C8.08341 12.9974 8.04201 13 8 13H5C4.44772 13 4 12.5523 4 12C4 11.4477 4.44772 11 5 11H8C8.04201 11 8.08342 11.0026 8.12406 11.0076C8.21914 10.6351 8.3665 10.2836 8.55786 9.96121C8.52546 9.93596 8.49426 9.90845 8.46447 9.87866L6.34315 7.75734C5.95263 7.36681 5.95263 6.73365 6.34315 6.34313C6.73368 5.9526 7.36684 5.9526 7.75737 6.34313L9.87869 8.46445C9.90848 8.49424 9.936 8.52544 9.96124 8.55784C10.2836 8.36649 10.6352 8.21914 11.0076 8.12406C11.0026 8.08342 11 8.04201 11 8V5C11 4.44772 11.4477 4 12 4Z" fill="currentColor"/>
</svg>
