<svg width="154" height="36" viewBox="0 0 154 36" fill="none" xmlns="http://www.w3.org/2000/svg">
<g clip-path="url(#clip0_2448_347)">
<path d="M37.427 19.8C36.761 20.511 35.933 20.862 34.925 20.862C33.692 20.862 33.071 20.313 33.071 19.215C33.071 18.801 33.107 18.396 33.17 17.982L34.781 8.86499H28.949L27.032 19.665C26.915 20.376 26.861 21.069 26.861 21.753C26.861 22.437 26.96 23.058 27.167 23.607C27.509 24.588 28.337 25.245 29.633 25.56C27.23 27.072 26.033 28.791 26.033 30.735C26.033 32.103 26.537 33.219 27.545 34.065C28.571 34.911 30.245 35.334 32.549 35.334C34.853 35.334 36.905 34.488 38.687 32.796C40.496 31.104 41.648 28.809 42.152 25.902L45.167 8.86499H39.335L37.418 19.8H37.427ZM36.257 26.379C35.798 29.079 34.826 30.429 33.341 30.429C32.864 30.429 32.486 30.276 32.207 29.979C31.955 29.709 31.829 29.34 31.829 28.881C31.829 27.369 33.422 25.875 36.599 24.39L36.257 26.379Z" fill="white"/>
<path d="M22.856 0.666016L14.972 12.501L11.3 0.666016H4.856L0.5 25.353H6.674L9.14 11.43L11.471 19.728H15.962L21.245 11.43L18.77 25.353H24.98L29.336 0.666016H22.856Z" fill="white"/>
<path d="M146.228 20.637C145.751 21.258 145.139 21.564 144.41 21.564C143.042 21.564 142.349 20.844 142.349 19.404C142.349 19.062 142.394 18.675 142.484 18.234L143.168 14.364H152.627L153.482 9.53101H144.023L145.013 3.80701L138.74 6.41701L136.409 19.683C136.319 20.232 136.274 20.745 136.274 21.222C136.274 22.689 136.706 23.85 137.579 24.723C138.749 25.911 140.657 26.505 143.303 26.505C148.766 26.505 151.979 23.724 152.933 18.171H147.245C147.065 19.197 146.723 20.025 146.219 20.637H146.228Z" fill="white"/>
<path d="M129.29 21.222C128.903 21.564 128.435 21.735 127.886 21.735C126.401 21.735 125.654 21.105 125.654 19.845C125.654 19.62 125.681 19.368 125.726 19.089L125.861 18.297H136.319L136.733 15.867C136.823 15.273 136.868 14.724 136.868 14.22C136.868 10.746 134.573 9.00897 129.974 9.00897C127.274 9.00897 125.105 9.60297 123.458 10.791C121.838 11.961 120.83 13.635 120.443 15.831L119.723 20.079C119.633 20.601 119.588 21.096 119.588 21.555C119.588 24.849 121.964 26.496 126.716 26.496C131.927 26.496 134.906 24.363 135.662 20.088L129.974 20.016C129.902 20.475 129.677 20.871 129.29 21.213V21.222ZM127.301 14.265C127.85 13.833 128.444 13.617 129.083 13.617C129.722 13.617 130.226 13.788 130.523 14.13C130.82 14.472 130.973 14.814 130.973 15.156C130.973 15.48 130.928 15.831 130.838 16.218H126.212C126.419 15.345 126.779 14.697 127.31 14.265H127.301Z" fill="white"/>
<path d="M116.015 9.53097L115.808 10.629C115.034 9.60297 113.576 9.08997 111.452 9.08997C109.328 9.08997 107.636 9.71097 106.313 10.944C104.99 12.159 104.144 13.788 103.775 15.849L103.091 19.863C103.001 20.421 102.956 20.934 102.938 21.42C102.587 21.555 102.191 21.645 101.714 21.645C101.12 21.645 100.823 21.348 100.823 20.754C100.823 20.619 100.832 20.484 100.859 20.34L104.459 0.00897217H98.6L96.854 10.017C96.008 9.39597 94.865 9.08997 93.425 9.08997C91.094 9.08997 89.267 9.71097 87.935 10.944C86.63 12.159 85.802 13.788 85.433 15.849L84.713 19.863C84.623 20.394 84.578 20.889 84.56 21.348C84.164 21.537 83.696 21.645 83.129 21.645C82.562 21.645 82.238 21.348 82.238 20.754C82.238 20.619 82.247 20.484 82.274 20.34L84.191 9.53997H78.359L76.406 20.475C75.785 21.186 74.966 21.537 73.94 21.537C72.707 21.537 72.086 20.988 72.086 19.89C72.086 19.476 72.122 19.071 72.185 18.657L73.796 9.53997H67.964L66.569 17.397C66.569 16.452 66.236 15.624 65.579 14.922C64.913 14.211 64.265 13.86 63.626 13.86L63.662 13.59C64.211 13.59 64.841 13.221 65.552 12.492C66.281 11.763 66.776 10.746 67.028 9.44097L67.334 7.79397C67.424 7.28997 67.469 6.81297 67.469 6.35397C67.469 5.03097 67.055 3.93297 66.236 3.05997C65.138 1.91697 63.284 1.34997 60.683 1.34997H50.738L46.382 26.037H57.83C60.296 26.037 62.222 25.479 63.59 24.354C64.796 23.382 65.588 22.086 66.029 20.484C65.912 21.159 65.84 21.879 65.84 22.68C65.84 23.526 66.065 24.282 66.524 24.939C67.208 25.992 68.711 26.514 71.015 26.514C73.319 26.514 75.2 25.524 76.568 23.535C76.793 25.524 78.206 26.514 80.789 26.514C82.094 26.514 84.074 25.299 85.217 24.417C86.063 25.803 87.701 26.514 90.158 26.514C92.372 26.514 94.055 25.596 95.198 23.769C95.468 25.596 96.863 26.514 99.383 26.514C100.616 26.514 102.47 25.425 103.631 24.552C104.117 25.317 104.855 25.857 105.845 26.172C103.289 27.657 102.002 29.403 102.002 31.419C102.002 32.787 102.506 33.903 103.514 34.749C104.54 35.595 106.214 36.018 108.518 36.018C110.822 36.018 112.874 35.172 114.656 33.48C116.465 31.788 117.617 29.493 118.121 26.586L121.136 9.54897H116.024L116.015 9.53097ZM59.405 19.953C58.784 20.43 57.956 20.673 56.903 20.673H53.51L54.329 15.939H57.587C59.414 15.939 60.332 16.668 60.332 18.135C60.332 18.846 60.026 19.449 59.405 19.953ZM57.587 11.79H55.049L55.94 6.67797H58.514C59.288 6.67797 59.873 6.88497 60.26 7.29897C60.674 7.71297 60.881 8.24397 60.881 8.90997C60.881 10.827 59.783 11.79 57.587 11.79ZM94.955 20.601C94.361 21.24 93.65 21.564 92.831 21.564C92.012 21.564 91.463 21.393 91.121 21.051C90.779 20.682 90.608 20.322 90.608 19.953C90.608 19.584 90.635 19.305 90.68 19.098L91.13 16.524C91.427 14.832 92.453 13.986 94.217 13.986C95.153 13.986 95.747 14.274 95.999 14.841L94.973 20.601H94.955ZM112.208 27.045C111.749 29.745 110.777 31.095 109.292 31.095C108.815 31.095 108.437 30.942 108.158 30.645C107.906 30.375 107.78 30.006 107.78 29.547C107.78 28.035 109.373 26.541 112.55 25.056L112.208 27.045ZM113.342 20.601C112.748 21.24 112.037 21.564 111.218 21.564C110.399 21.564 109.85 21.393 109.508 21.051C109.166 20.682 108.995 20.322 108.995 19.953C108.995 19.584 109.022 19.305 109.067 19.098L109.517 16.524C109.652 15.75 109.976 15.129 110.48 14.67C110.984 14.211 111.677 13.986 112.568 13.986C113.459 13.986 114.062 14.274 114.386 14.841L113.36 20.601H113.342Z" fill="white"/>
</g>
<defs>
<clipPath id="clip0_2448_347">
<rect width="153" height="36" fill="white" transform="translate(0.5)"/>
</clipPath>
</defs>
</svg>
