<svg width="60" height="60" viewBox="0 0 60 60" fill="none" xmlns="http://www.w3.org/2000/svg">
<g clip-path="url(#clip0_2448_337)">
<path d="M0 0H30C35.5228 0 40 4.47715 40 10C40 15.5228 35.5228 20 30 20H0V0Z" fill="#4392F5"/>
<rect x="40" width="20" height="20" rx="10" fill="#4392F5" fill-opacity="0.3"/>
<path d="M0 20H50C55.5228 20 60 24.4772 60 30C60 35.5228 55.5228 40 50 40H0V20Z" fill="url(#paint0_linear_2448_337)"/>
<path d="M0 40H50C55.5228 40 60 44.4772 60 50C60 55.5228 55.5228 60 50 60H0V40Z" fill="url(#paint1_linear_2448_337)" fill-opacity="0.5"/>
<path d="M0 40H20C25.5228 40 30 44.4772 30 50C30 55.5228 25.5228 60 20 60H0V40Z" fill="#FEC044"/>
</g>
<defs>
<linearGradient id="paint0_linear_2448_337" x1="0" y1="40" x2="60" y2="40" gradientUnits="userSpaceOnUse">
<stop stop-color="#B8F773"/>
<stop offset="1" stop-color="#29C28B"/>
</linearGradient>
<linearGradient id="paint1_linear_2448_337" x1="60" y1="50" x2="4.96706e-07" y2="50" gradientUnits="userSpaceOnUse">
<stop stop-color="#F6BB43"/>
<stop offset="1" stop-color="#F6BB43" stop-opacity="0.5"/>
</linearGradient>
<clipPath id="clip0_2448_337">
<rect width="60" height="60" rx="8" fill="white"/>
</clipPath>
</defs>
</svg>
